<?xml version="1.0" encoding="utf-8"?>
<svg version="1.1" xmlns:xlink="http://www.w3.org/1999/xlink" width="12px" height="12px" viewBox="50 530  12 12" xmlns="http://www.w3.org/2000/svg">
  <path d="M 56 530  C 59.36 530  62 532.64  62 536  C 62 539.36  59.36 542  56 542  C 52.64 542  50 539.36  50 536  C 50 532.64  52.64 530  56 530  Z " fill-rule="nonzero" fill="#ffffff" stroke="none" />
  <path d="M 56 530.5  C 59.08 530.5  61.5 532.92  61.5 536  C 61.5 539.08  59.08 541.5  56 541.5  C 52.92 541.5  50.5 539.08  50.5 536  C 50.5 532.92  52.92 530.5  56 530.5  Z " stroke-width="1" stroke="#797979" fill="none" />
  <path d="M 56 539  C 54.32 539  53 537.68  53 536  C 53 534.32  54.32 533  56 533  C 57.68 533  59 534.32  59 536  C 59 537.68  57.68 539  56 539  " fill-rule="nonzero" fill="#797979" stroke="none" />
</svg>