<?xml version="1.0" encoding="utf-8"?>
<svg version="1.1" xmlns:xlink="http://www.w3.org/1999/xlink" width="12px" height="12px" viewBox="1534 557  12 12" xmlns="http://www.w3.org/2000/svg">
  <path d="M 1540 557  C 1543.36 557  1546 559.64  1546 563  C 1546 566.36  1543.36 569  1540 569  C 1536.64 569  1534 566.36  1534 563  C 1534 559.64  1536.64 557  1540 557  Z " fill-rule="nonzero" fill="#f0f0f0" stroke="none" />
  <path d="M 1540 557.5  C 1543.08 557.5  1545.5 559.92  1545.5 563  C 1545.5 566.08  1543.08 568.5  1540 568.5  C 1536.92 568.5  1534.5 566.08  1534.5 563  C 1534.5 559.92  1536.92 557.5  1540 557.5  Z " stroke-width="1" stroke="#797979" fill="none" />
  <path d="M 1540 566  C 1538.32 566  1537 564.68  1537 563  C 1537 561.32  1538.32 560  1540 560  C 1541.68 560  1543 561.32  1543 563  C 1543 564.68  1541.68 566  1540 566  " fill-rule="nonzero" fill="#797979" stroke="none" />
</svg>